<svg width="117" height="111" viewBox="0 0 117 111" fill="none" xmlns="http://www.w3.org/2000/svg">
<line x1="97" y1="110.132" x2="97" y2="76" stroke="#7267EC" stroke-width="40"/>
<line x1="43" y1="110.132" x2="43" y2="76" stroke="#7267EC" stroke-width="30"/>
<line x1="5" y1="110.132" x2="5" y2="76" stroke="#7267EC" stroke-width="10"/>
<path d="M44.0478 16.728H33.1518V45H26.5758V16.728H15.6798V10.92H44.0478V16.728ZM48.2786 45V10.92H60.6626C64.3746 10.92 67.4786 11.688 69.9746 13.224C72.4706 14.728 74.3426 16.776 75.5906 19.368C76.8386 21.928 77.4626 24.776 77.4626 27.912C77.4626 31.368 76.7746 34.376 75.3986 36.936C74.0226 39.496 72.0706 41.48 69.5426 42.888C67.0146 44.296 64.0546 45 60.6626 45H48.2786ZM70.7906 27.912C70.7906 25.704 70.3906 23.768 69.5906 22.104C68.7906 20.408 67.6386 19.096 66.1346 18.168C64.6306 17.208 62.8066 16.728 60.6626 16.728H54.9026V39.192H60.6626C62.8386 39.192 64.6786 38.712 66.1826 37.752C67.6866 36.76 68.8226 35.416 69.5906 33.72C70.3906 31.992 70.7906 30.056 70.7906 27.912ZM80.5739 27.72C80.5739 25.64 80.9419 23.592 81.6779 21.576C82.4459 19.56 83.5499 17.736 84.9899 16.104C86.4299 14.472 88.1899 13.176 90.2699 12.216C92.3499 11.224 94.7179 10.728 97.3739 10.728C100.478 10.728 103.182 11.416 105.486 12.792C107.79 14.168 109.502 15.96 110.622 18.168L105.534 21.672C104.958 20.392 104.206 19.384 103.278 18.648C102.35 17.912 101.342 17.384 100.254 17.064C99.1979 16.744 98.1739 16.584 97.1819 16.584C95.5179 16.584 94.0619 16.92 92.8139 17.592C91.5979 18.264 90.5739 19.144 89.7419 20.232C88.9099 21.32 88.2859 22.536 87.8699 23.88C87.4859 25.224 87.2939 26.568 87.2939 27.912C87.2939 29.928 87.7099 31.816 88.5419 33.576C89.3739 35.304 90.5419 36.712 92.0459 37.8C93.5499 38.888 95.2939 39.432 97.2779 39.432C98.3019 39.432 99.3579 39.256 100.446 38.904C101.566 38.552 102.59 37.992 103.518 37.224C104.446 36.456 105.166 35.464 105.678 34.248L111.102 37.368C110.398 39.064 109.294 40.504 107.79 41.688C106.286 42.84 104.59 43.736 102.702 44.376C100.814 44.984 98.9419 45.288 97.0859 45.288C94.6539 45.288 92.4299 44.792 90.4139 43.8C88.4299 42.776 86.7019 41.432 85.2299 39.768C83.7579 38.072 82.6059 36.184 81.7739 34.104C80.9739 31.992 80.5739 29.864 80.5739 27.72Z" fill="#7267EC"/>
</svg>
